<svg t="1752739976080" class="icon" viewBox="0 0 1024 1024" version="1.1" xmlns="http://www.w3.org/2000/svg" p-id="4649" width="32" height="32"><path d="M255.329 231.83C212.739 142.273 153.359 65.132 77.148 0.386L267.84 0a686.133 686.133 0 0 1 149.188 218.117 685.707 685.707 0 0 1 56.011 267.446v538.418H321.49V525.925c0-103.384-22.06-201.422-66.18-294.096zM550.955 1024V485.583a685.688 685.688 0 0 1 55.991-267.466C642.466 135.883 692.183 63.177 756.154 0l190.693 0.387C870.616 65.133 811.235 142.274 768.665 231.83a677.418 677.418 0 0 0-66.16 294.077V1024h-151.55z" fill="#BE1120" p-id="4650"></path></svg>