<svg t="1752740016400" class="icon" viewBox="0 0 1024 1024" version="1.1" xmlns="http://www.w3.org/2000/svg" p-id="5750" width="32" height="32"><path d="M510.165334 556.416195c-15.78666 0-31.359987 0.810666-46.762647 2.346666v-93.482628a476.287802 476.287802 0 0 0 93.525294 0v93.439961c-15.359994-1.493333-31.018654-2.303999-46.805314-2.303999z m191.658587 41.002649V426.581582A467.626472 467.626472 0 0 0 977.621139 1.877759 1.877333 1.877333 0 0 0 975.743807 0.000427h-141.226608a1.877333 1.877333 0 0 0-1.791999 1.877332 322.133199 322.133199 0 0 1-130.858612 257.621226V1.877759A1.877333 1.877333 0 0 0 699.946588 0.000427h-141.226607a1.877333 1.877333 0 0 0-1.834666 1.877332v317.354535a324.309198 324.309198 0 0 1-93.525295 0V1.920426A1.834666 1.834666 0 0 0 461.568021 0.000427h-141.226608a1.877333 1.877333 0 0 0-1.834666 1.877332v257.663893A322.133199 322.133199 0 0 1 187.562802 1.835093 1.877333 1.877333 0 0 0 185.728136 0.000427H44.544195A1.877333 1.877333 0 0 0 42.666862 1.877759 467.626472 467.626472 0 0 0 318.506747 426.666916V597.333511A467.626472 467.626472 0 0 0 42.666862 1022.122667c0 1.024 0.853333 1.877333 1.877333 1.877333h141.226608c0.981333 0 1.791999-0.853333 1.791999-1.877333a322.133199 322.133199 0 0 1 130.986612-257.663892v257.663892c0 1.024 0.810666 1.877333 1.834666 1.877333h141.183941c1.024 0 1.834666-0.853333 1.834666-1.877333v-317.397201a325.717198 325.717198 0 0 1 93.525294 0v317.397201c0 1.024 0.853333 1.877333 1.877333 1.877333h141.183941c1.024 0 1.834666-0.853333 1.834666-1.877333v-257.621226a322.133199 322.133199 0 0 1 130.901279 257.621226c0 1.066666 0.810666 1.877333 1.834666 1.877333h141.183941c1.024 0 1.877333-0.853333 1.877332-1.877333a467.626472 467.626472 0 0 0-275.754551-424.703823z" fill="#30944B" p-id="5751"></path></svg>
